<?xml version="1.0" encoding="UTF-8" standalone="no"?>
<svg width="500px" height="500px" viewBox="0 0 500 500" version="1.1" xmlns="http://www.w3.org/2000/svg" xmlns:xlink="http://www.w3.org/1999/xlink" xmlns:sketch="http://www.bohemiancoding.com/sketch/ns">
    <!-- Generator: Sketch 3.1.1 (8761) - http://www.bohemiancoding.com/sketch -->
    <title>Artboard 1</title>
    <desc>Created with Sketch.</desc>
    <defs></defs>
    <g id="Page-1" stroke="none" stroke-width="1" fill="none" fill-rule="evenodd" sketch:type="MSPage">
        <g id="Artboard-1" sketch:type="MSArtboardGroup">
            <g id="percentage1" sketch:type="MSLayerGroup" transform="translate(1.000000, 1.000000)">
                <circle id="Oval-1" fill="#FCD20B" sketch:type="MSShapeGroup" cx="249" cy="249" r="249"></circle>
                <path d="M396.999996,449.5 C396.999996,449.5 407.950476,441.385304 420.5,429.5 C426.163071,424.136664 431.737691,417.983365 437.5,411.5 C453.669087,393.307625 466.471282,371.557437 469.5,365.5 C476,352.5 480.869467,341.77169 486,327.5 C490.264982,315.636027 491.076955,316.392417 494.5,294 C497.923045,271.607582 498,249 498,249 C498,249 498.357179,230.943374 494.5,207.5 C491.953894,192.025133 486.912769,173.764503 481.068,158.364 C466.368801,119.632778 455.676922,106.551721 435.252,83.664 C428.388663,75.973095 421.444098,69.1296847 414.5,63 C410.359215,59.344852 405.839744,55.9166322 402.384,52.788 C390.275687,41.8258302 368.324836,28.3037062 343,18 C336.124792,15.2027409 328.938489,13.2952758 321.708,10.956 C304.547177,5.40396916 286.517497,2.35074555 272.5,1 C258.856322,-0.314723846 248.992,0 248.992,0 L246.5,255.5 L396.999996,449.5 Z" id="Oval-3" fill="#000000" sketch:type="MSShapeGroup"></path>
                <circle id="Oval-2" fill="#FFFFFF" sketch:type="MSShapeGroup" cx="249" cy="249" r="149.4"></circle>
                <path d="M162.054687,249.421875 C162.054687,236.48431 162.945304,226.230507 164.726562,218.660156 C166.507821,211.089806 169.121077,205.757828 172.566406,202.664062 C176.011736,199.570297 180.570284,198.023438 186.242187,198.023438 C189.101577,198.023438 191.890611,198.527339 194.609375,199.535156 C197.328139,200.542974 199.437492,201.703118 200.9375,203.015625 C201.500003,203.531253 201.78125,204.304682 201.78125,205.335938 C201.828125,205.570314 201.792969,206.074215 201.675781,206.847656 C201.558593,207.621098 201.453125,208.101562 201.359375,208.289062 C200.937498,209.554694 200.375004,209.92969 199.671875,209.414062 C199.578125,209.367187 199.27344,209.156252 198.757812,208.78125 C198.242185,208.406248 197.867189,208.13672 197.632812,207.972656 C197.398436,207.808593 196.988284,207.562502 196.402344,207.234375 C195.816403,206.906248 195.324221,206.648438 194.925781,206.460938 C194.527342,206.273437 193.988285,206.039064 193.308594,205.757812 C192.628903,205.476561 191.984378,205.265626 191.375,205.125 C190.765622,204.984374 190.062504,204.867188 189.265625,204.773438 C188.468746,204.679687 187.671879,204.632812 186.875,204.632812 C181.062471,204.632812 176.855482,207.351535 174.253906,212.789062 C171.652331,218.22659 170.351562,227.320249 170.351562,240.070312 L170.351562,242.742188 C176.164092,240.492176 181.179666,239.367188 185.398437,239.367188 C189.289082,239.367188 192.593736,240.152336 195.3125,241.722656 C198.031264,243.292977 200.11718,245.531235 201.570312,248.4375 C203.023445,251.343765 204.054684,254.519514 204.664062,257.964844 C205.273441,261.410173 205.578125,265.359353 205.578125,269.8125 C205.578125,274.7344 205.203129,279.046856 204.453125,282.75 C203.703121,286.453144 202.707037,289.453114 201.464844,291.75 C200.22265,294.046886 198.652353,295.89843 196.753906,297.304688 C194.855459,298.710945 192.87501,299.683591 190.8125,300.222656 C188.74999,300.761721 186.4297,301.03125 183.851562,301.03125 C180.898423,301.03125 178.285168,300.539067 176.011719,299.554688 C173.73827,298.570308 171.804695,297.035167 170.210937,294.949219 C168.61718,292.863271 167.281255,290.425795 166.203125,287.636719 C165.124995,284.847642 164.292972,281.43752 163.707031,277.40625 C163.121091,273.37498 162.69922,269.156272 162.441406,264.75 C162.183592,260.343728 162.054687,255.234404 162.054687,249.421875 L162.054687,249.421875 Z M184.132812,294.421875 C187.226578,294.421875 189.722647,293.718757 191.621094,292.3125 C193.519541,290.906243 195.019526,288.328144 196.121094,284.578125 C197.222662,280.828106 197.773437,275.718782 197.773437,269.25 C197.773437,266.015609 197.597658,263.144544 197.246094,260.636719 C196.894529,258.128894 196.285161,255.714855 195.417969,253.394531 C194.550777,251.074207 193.23829,249.281256 191.480469,248.015625 C189.722647,246.749994 187.578138,246.117188 185.046875,246.117188 C180.96873,246.117188 176.000029,247.218739 170.140625,249.421875 L170.140625,253.359375 C170.140625,268.4532 171.148427,279.070282 173.164062,285.210938 C175.179698,291.351593 178.835911,294.421875 184.132812,294.421875 L184.132812,294.421875 Z M240.171875,294.914062 C243.500017,294.914062 246.183584,293.460952 248.222656,290.554688 C250.261729,287.648423 251.808588,282.808628 252.863281,276.035156 C253.917974,269.261685 254.445312,260.203182 254.445312,248.859375 C254.445312,237.937445 253.929693,229.218783 252.898437,222.703125 C251.867182,216.187467 250.320323,211.500014 248.257812,208.640625 C246.195302,205.781236 243.476579,204.351562 240.101562,204.351562 C236.726546,204.351562 233.996104,205.792954 231.910156,208.675781 C229.824208,211.558608 228.26563,216.25778 227.234375,222.773438 C226.20312,229.289095 225.6875,237.984321 225.6875,248.859375 C225.6875,260.062556 226.226557,269.074185 227.304687,275.894531 C228.382818,282.714878 229.964833,287.589829 232.050781,290.519531 C234.136729,293.449233 236.843733,294.914062 240.171875,294.914062 L240.171875,294.914062 Z M240.101562,301.523438 C237.476549,301.523438 235.097667,301.019536 232.964844,300.011719 C230.832021,299.003901 228.816416,297.257825 226.917969,294.773438 C225.019522,292.28905 223.414069,289.078145 222.101562,285.140625 C220.789056,281.203105 219.757816,276.175812 219.007812,270.058594 C218.257809,263.941376 217.882812,256.87504 217.882812,248.859375 C217.882812,240.890585 218.257809,233.894561 219.007812,227.871094 C219.757816,221.847626 220.777337,216.960956 222.066406,213.210938 C223.355475,209.460919 224.960928,206.414074 226.882812,204.070312 C228.804697,201.726551 230.820302,200.097661 232.929687,199.183594 C235.039073,198.269527 237.406237,197.8125 240.03125,197.8125 C242.703138,197.8125 245.093739,198.257808 247.203125,199.148438 C249.312511,200.039067 251.339834,201.64452 253.285156,203.964844 C255.230478,206.285168 256.84765,209.332012 258.136719,213.105469 C259.425788,216.878925 260.445309,221.777314 261.195312,227.800781 C261.945316,233.824249 262.320312,240.84371 262.320312,248.859375 C262.320312,258.796925 261.769537,267.281215 260.667969,274.3125 C259.566401,281.343785 257.972667,286.792949 255.886719,290.660156 C253.800771,294.527363 251.480482,297.304679 248.925781,298.992188 C246.371081,300.679696 243.429704,301.523438 240.101562,301.523438 L240.101562,301.523438 Z M294.59375,305.882812 C294.265623,305.882812 293.984376,305.542972 293.75,304.863281 C293.515624,304.18359 293.398438,303.375005 293.398438,302.4375 C293.398438,302.109373 293.445312,301.617191 293.539062,300.960938 L309.21875,197.039062 C309.406251,195.58593 309.746091,194.402348 310.238281,193.488281 C310.730471,192.574214 311.25781,192.117188 311.820312,192.117188 L313.226562,192.117188 C313.554689,192.117188 313.835936,192.457028 314.070312,193.136719 C314.304689,193.81641 314.421875,194.601558 314.421875,195.492188 C314.421875,195.867189 314.375,196.382809 314.28125,197.039062 L298.601562,300.960938 C298.13281,304.242204 297.289069,305.882812 296.070312,305.882812 L294.59375,305.882812 Z M283.34375,247.523438 C285.359385,247.523438 286.894526,245.6133 287.949219,241.792969 C289.003912,237.972637 289.53125,232.757846 289.53125,226.148438 C289.53125,211.804616 287.468771,204.632812 283.34375,204.632812 C281.28124,204.632812 279.710943,206.531231 278.632812,210.328125 C277.554682,214.125019 277.015625,219.398404 277.015625,226.148438 C277.015625,232.71097 277.566401,237.914043 278.667969,241.757812 C279.769537,245.601582 281.328115,247.523438 283.34375,247.523438 L283.34375,247.523438 Z M283.34375,253.429688 C279.640606,253.429688 276.816416,251.09768 274.871094,246.433594 C272.925772,241.769508 271.953125,235.031294 271.953125,226.21875 C271.953125,217.406206 272.914053,210.621118 274.835938,205.863281 C276.757822,201.105445 279.593731,198.726562 283.34375,198.726562 C287.046894,198.726562 289.847647,201.105445 291.746094,205.863281 C293.644541,210.621118 294.59375,217.406206 294.59375,226.21875 C294.59375,235.031294 293.632822,241.769508 291.710938,246.433594 C289.789053,251.09768 287.000018,253.429688 283.34375,253.429688 L283.34375,253.429688 Z M324.96875,294.28125 C326.984385,294.28125 328.519526,292.382831 329.574219,288.585938 C330.628912,284.789044 331.15625,279.562533 331.15625,272.90625 C331.15625,258.515553 329.093771,251.320312 324.96875,251.320312 C322.90624,251.320312 321.335943,253.242168 320.257812,257.085938 C319.179682,260.929707 318.640625,266.203091 318.640625,272.90625 C318.640625,279.468783 319.203119,284.671856 320.328125,288.515625 C321.453131,292.359394 322.99999,294.28125 324.96875,294.28125 L324.96875,294.28125 Z M324.96875,300.1875 C321.265606,300.1875 318.441416,297.843773 316.496094,293.15625 C314.550772,288.468727 313.578125,281.718794 313.578125,272.90625 C313.578125,264.093706 314.539053,257.308618 316.460938,252.550781 C318.382822,247.792945 321.218731,245.414062 324.96875,245.414062 C328.671894,245.414062 331.472647,247.792945 333.371094,252.550781 C335.269541,257.308618 336.21875,264.093706 336.21875,272.90625 C336.21875,281.718794 335.257822,288.468727 333.335938,293.15625 C331.414053,297.843773 328.625018,300.1875 324.96875,300.1875 L324.96875,300.1875 Z" id="60%" fill="#000000" sketch:type="MSShapeGroup"></path>
            </g>
        </g>
    </g>
</svg>